<svg width="32" height="32" fill="none" xmlns="http://www.w3.org/2000/svg">
<g id="icon_experiment">
<g id="shape_accent">
<rect id="layer 1" x="4" y="4" width="14" height="13" fill="#C4C4C4"/>
<rect id="layer 2" x="16" y="4" width="6" height="6" fill="#C4C4C4"/>
</g>
<g id="shape_primary">
<rect id="layer 1_2" x="13" y="11" width="15" height="16" fill="#C4C4C4"/>
<rect id="layer 2_2" x="8" y="20" width="9" height="9" fill="#C4C4C4"/>
<path id="some_text" d="M10.8848 12.3945H8.14258V20H7.02344V12.3945H4.28711V11.4688H10.8848V12.3945ZM14.0254 20.1172C13.166 20.1172 12.4668 19.8359 11.9277 19.2734C11.3887 18.707 11.1191 17.9512 11.1191 17.0059V16.8066C11.1191 16.1777 11.2383 15.6172 11.4766 15.125C11.7188 14.6289 12.0547 14.2422 12.4844 13.9648C12.918 13.6836 13.3867 13.543 13.8906 13.543C14.7148 13.543 15.3555 13.8145 15.8125 14.3574C16.2695 14.9004 16.498 15.6777 16.498 16.6895V17.1406H12.2031C12.2188 17.7656 12.4004 18.2715 12.748 18.6582C13.0996 19.041 13.5449 19.2324 14.084 19.2324C14.4668 19.2324 14.791 19.1543 15.0566 18.998C15.3223 18.8418 15.5547 18.6348 15.7539 18.377L16.416 18.8926C15.8848 19.709 15.0879 20.1172 14.0254 20.1172ZM13.8906 14.4336C13.4531 14.4336 13.0859 14.5938 12.7891 14.9141C12.4922 15.2305 12.3086 15.6758 12.2383 16.25H15.4141V16.168C15.3828 15.6172 15.2344 15.1914 14.9688 14.8906C14.7031 14.5859 14.3438 14.4336 13.8906 14.4336ZM19.8848 15.9746L21.291 13.6602H22.5566L20.4824 16.7949L22.6211 20H21.3672L19.9023 17.627L18.4375 20H17.1777L19.3164 16.7949L17.2422 13.6602H18.4961L19.8848 15.9746ZM25.1816 12.125V13.6602H26.3652V14.498H25.1816V18.4297C25.1816 18.6836 25.2344 18.875 25.3398 19.0039C25.4453 19.1289 25.625 19.1914 25.8789 19.1914C26.0039 19.1914 26.1758 19.168 26.3945 19.1211V20C26.1094 20.0781 25.832 20.1172 25.5625 20.1172C25.0781 20.1172 24.7129 19.9707 24.4668 19.6777C24.2207 19.3848 24.0977 18.9688 24.0977 18.4297V14.498H22.9434V13.6602H24.0977V12.125H25.1816Z" fill="black"/>
</g>
</g>
</svg>
