<svg width="32" height="32" viewBox="0 0 32 32" fill="none" xmlns="http://www.w3.org/2000/svg">
<g id="icon_experiment">
<path id="shape_accent" d="M30 16C30 23.732 23.732 30 16 30C8.26801 30 2 23.732 2 16C2 8.26801 8.26801 2 16 2C23.732 2 30 8.26801 30 16Z" fill="#C1DAFF"/>
<path id="shape_primary" fill-rule="evenodd" clip-rule="evenodd" d="M28 16C28 22.6274 22.6274 28 16 28C9.37258 28 4 22.6274 4 16C4 9.37258 9.37258 4 16 4C22.6274 4 28 9.37258 28 16ZM30 16C30 23.732 23.732 30 16 30C8.26801 30 2 23.732 2 16C2 8.26801 8.26801 2 16 2C23.732 2 30 8.26801 30 16ZM10.9603 16C12.6171 16 13.9603 13.9853 13.9603 11.5C13.9603 9.01472 12.6171 7 10.9603 7C9.30342 7 7.96027 9.01472 7.96027 11.5C7.96027 13.9853 9.30342 16 10.9603 16ZM23.9603 11.5C23.9603 13.9853 22.6171 16 20.9603 16C19.3034 16 17.9603 13.9853 17.9603 11.5C17.9603 9.01472 19.3034 7 20.9603 7C22.6171 7 23.9603 9.01472 23.9603 11.5ZM7.6955 19.0475C8.21994 18.8796 8.78102 19.1674 8.95118 19.6904L8.95164 19.6918C8.95282 19.6952 8.95553 19.7031 8.95989 19.7151C8.96861 19.7391 8.98384 19.7796 9.00631 19.8342C9.05131 19.9436 9.12489 20.1085 9.23263 20.3105C9.44878 20.7158 9.7977 21.2616 10.3217 21.8074C11.3505 22.879 13.0967 23.9999 16.0003 23.9999C18.9039 23.9999 20.6501 22.879 21.6789 21.8074C22.2028 21.2616 22.5518 20.7158 22.7679 20.3105C22.8757 20.1085 22.9492 19.9436 22.9942 19.8342C23.0167 19.7796 23.0319 19.7391 23.0407 19.7151C23.0433 19.7078 23.0454 19.702 23.0468 19.6978C23.0478 19.6951 23.0484 19.6931 23.0489 19.6918L23.0485 19.6932L23.0482 19.6941C23.2169 19.1687 23.7794 18.8792 24.305 19.0475C24.8311 19.2158 25.121 19.7787 24.9527 20.3047L24.0003 19.9999C24.9527 20.3047 24.9525 20.3052 24.9523 20.3058L24.9519 20.3071L24.951 20.3099L24.9487 20.317L24.9421 20.3367C24.9368 20.3522 24.9298 20.3724 24.9208 20.397C24.903 20.4462 24.8776 20.5131 24.8438 20.5952C24.7763 20.7593 24.6749 20.985 24.5326 21.2517C24.2488 21.7839 23.7977 22.4882 23.1217 23.1924C21.7505 24.6207 19.4967 25.9999 16.0003 25.9999C12.5039 25.9999 10.2501 24.6207 8.87889 23.1924C8.20285 22.4882 7.75177 21.7839 7.46792 21.2517C7.32565 20.985 7.22423 20.7593 7.15674 20.5952C7.12295 20.5131 7.09756 20.4462 7.07972 20.397C7.07079 20.3724 7.06375 20.3522 7.05847 20.3367L7.05187 20.317L7.04954 20.3099L7.04862 20.3071L7.04821 20.3058C7.04803 20.3052 7.04785 20.3047 8.00027 19.9999L7.04785 20.3047C6.87953 19.7787 7.16949 19.2158 7.6955 19.0475Z" fill="#486084"/>
</g>
</svg>

